<?xml version="1.0" encoding="utf-8"?>
<!-- Generator: Adobe Illustrator 23.0.1, SVG Export Plug-In . SVG Version: 6.00 Build 0)  -->
<svg version="1.1" id="Layer_1" xmlns="http://www.w3.org/2000/svg" xmlns:xlink="http://www.w3.org/1999/xlink" x="0px" y="0px"
	 viewBox="0 0 100 100" style="enable-background:new 0 0 100 100;" xml:space="preserve">
<g>
	<path d="M82.1,44.98v30.2h5.1v-49.3h-5.1v3.2C83.4,34.38,83.4,39.78,82.1,44.98z"/>
	<path d="M52.2,19.18v38.1c1.6-0.1,3.2-0.5,4.7-1v-37.1H52.2z"/>
	<path d="M73.1,60.48c-0.2,0.3-0.5,0.6-0.8,0.9l2.7,4.7c0.5,0.3,1,0.8,1.3,1.3l2.1,3.4v-17C77,56.18,75.2,58.48,73.1,60.48z"/>
	<path d="M67.3,48.18v-22.3c-1.4-2.1-3-3.8-5-5.3v32.8C64.4,51.98,66,50.18,67.3,48.18z"/>
	<path d="M37.2,52.48v-31c-3.2,2.7-5.4,6.2-6.5,10.1v10.8c0.4,1.6,1.1,3.2,1.9,4.7C33.9,49.18,35.5,50.98,37.2,52.48z"/>
	<path d="M44.8,19.18v37.4c1.1,0.3,2.2,0.5,3.3,0.6v-38H44.8z"/>
	<path d="M35.4,66.08v9.1h4.7v-7.2C38.5,67.48,36.9,66.88,35.4,66.08z"/>
	<path d="M46.1,69.38v5.8h2v-5.6C47.4,69.58,46.8,69.48,46.1,69.38z"/>
	<path d="M51,69.68v5.5h3.5v-5.8C53.3,69.58,52.2,69.68,51,69.68z"/>
	<path d="M63.5,74.68c-0.3-0.6-0.5-1.2-0.5-1.8l-2.6-4.6c-0.4,0.1-0.8,0.2-1.2,0.2c-0.2,0.1-0.5,0.1-0.7,0.2v6.5h5.3L63.5,74.68z"/>
	<path d="M28.5,61.28v13.9h3.7v-11C30.9,63.28,29.6,62.28,28.5,61.28z"/>
	<path d="M22,53.28c-1.1-1.9-2-3.9-2.7-6v27.9h5.1v-18.2C23.6,55.78,22.8,54.58,22,53.28z"/>
	<rect x="11.8" y="25.88" width="3.5" height="49.3"/>
	<path d="M84.6,87.28l-11.3-18.1c-0.1-0.2-0.3-0.3-0.4-0.3s-0.3-0.1-0.4-0.3l-4.3-7.5c-0.1-0.2-0.1-0.4,0.1-0.6c0,0,1.6-1.4,2.2-2.4
		c9.5-9,12-23.7,5.2-35.6c-8-14-25.8-18.8-39.8-10.8s-18.8,25.8-10.8,39.8c6.8,11.9,20.8,17.2,33.4,13.5c1.2-0.1,3.2-0.7,3.2-0.7
		c0.2-0.1,0.4,0,0.5,0.2l4.3,7.5c0.1,0.2,0.1,0.4,0,0.5s-0.1,0.3,0,0.5l10,18.9c0.1,0.2,0.3,0.3,0.5,0.3s4-2.1,4.2-2.2
		c0,0,3.3-1.9,3.4-2.1C84.7,87.78,84.7,87.48,84.6,87.28z M29.7,48.88c-6.6-11.4-2.6-26,8.8-32.6s26-2.6,32.6,8.8s2.6,26-8.8,32.6
		S36.2,60.28,29.7,48.88z"/>
</g>
</svg>
