<?xml version="1.0" encoding="utf-8"?>
<!-- Generator: Adobe Illustrator 23.0.1, SVG Export Plug-In . SVG Version: 6.00 Build 0)  -->
<svg version="1.1" id="Layer_1" xmlns="http://www.w3.org/2000/svg" xmlns:xlink="http://www.w3.org/1999/xlink" x="0px" y="0px"
	 viewBox="0 0 100 100" style="enable-background:new 0 0 100 100;" xml:space="preserve">
<style type="text/css">
	.st0{font-family:'HelveticaNeue-Bold';}
	.st1{font-size:9.057591e-03px;}
</style>
<g>
	<path d="M26.95,4.09h26.79c1.89,0,3.61,0.77,4.86,2.02c1.24,1.25,2.02,2.97,2.02,4.86V41.4c3.46,1.37,5.05,4.16,6.62,6.92
		c1.07,1.89,2.14,3.76,3.8,4.75c1.67,1,3.14,2.14,4.22,3.55c1.15,1.51,1.81,3.28,1.74,5.41c-0.27,7.83,0.38,11.43,1.5,17.67
		c0.36,2.01,0.77,4.29,1.21,7c0.61,1.65,0.06,3.16-1.28,4.47c-0.96,0.94-2.38,1.78-4.04,2.48c-1.58,0.66-3.37,1.21-5.17,1.6
		c-5.22,1.13-10.82,0.89-12.34-1.49c-0.08-0.12-0.14-0.25-0.18-0.38c-0.12-0.35-0.28-0.77-0.47-1.26l-0.52-1.31
		c-1.95-1.62-3.95-3.36-5.75-5.28c-1.73-1.85-3.27-3.85-4.37-6.05c-1.75-0.25-2.69-0.08-4.34,0.22c-0.72,0.13-1.54,0.28-2.34,0.4
		c-2.47,0.37-4.29-0.89-5.27-2.68c-0.41-0.75-0.66-1.6-0.74-2.45c-0.08-0.88,0.02-1.76,0.32-2.56l0.07-0.16
		c0.06-0.16,0.13-0.31,0.21-0.45h-6.51c-1.89,0-3.61-0.77-4.86-2.02c-1.25-1.24-2.02-2.97-2.02-4.86V10.96
		c0-1.89,0.77-3.61,2.02-4.86S25.06,4.09,26.95,4.09z M60.61,60.04l3.37,3.37c0.75,0.74,0.75,1.95,0.01,2.7
		c-0.74,0.75-1.95,0.75-2.7,0.01l-3.94-3.94c-2.02-1.71-4.16-3.4-6.39-5.08c-2.39-1.8-4.93-3.61-7.59-5.44
		c-1.28-0.88-2.39-0.99-3.2-0.64c-0.36,0.15-0.68,0.4-0.93,0.71c-0.26,0.32-0.45,0.71-0.54,1.12c-0.2,0.91,0.05,1.97,0.96,2.85
		c2.41,2.34,4.53,4.51,6.49,6.79c1.79,2.08,3.45,4.26,5.1,6.74c0.36,0.27,0.61,0.67,0.68,1.14c0.05,0.17,0.09,0.35,0.09,0.54
		c0,0.07-0.01,0.15-0.01,0.22c0.26,2.57,0.7,4.52,1.47,6.2c0.83,1.82,2.09,3.42,3.98,5.27c0.69,0.67,0.7,1.77,0.03,2.45
		c-0.67,0.69-1.77,0.7-2.45,0.03c-2.2-2.14-3.69-4.06-4.72-6.31c-0.82-1.79-1.33-3.74-1.64-6.12l-10.75,0.08
		c-0.78,0.01-1.24,0.35-1.45,0.81l-0.03,0.09c-0.12,0.32-0.16,0.68-0.12,1.04c0.03,0.39,0.15,0.77,0.33,1.1
		c0.33,0.6,0.92,1.02,1.72,0.9c1.01-0.15,1.67-0.27,2.23-0.37c2.33-0.42,3.5-0.63,6.45-0.07c0.54,0.1,1.03,0.46,1.27,1
		c0.96,2.15,2.43,4.12,4.14,5.95c1.73,1.85,3.72,3.57,5.68,5.18c0.26,0.19,0.47,0.45,0.6,0.76l0.7,1.75l0.43,1.15
		c0.89,0.92,4.75,0.68,8.58-0.16c1.63-0.35,3.22-0.83,4.56-1.4c1.26-0.53,2.31-1.13,2.95-1.76c0.34-0.33,0.51-0.62,0.45-0.82
		c-0.06-0.14-0.11-0.29-0.13-0.44c-0.45-2.83-0.86-5.11-1.22-7.12c-1.16-6.48-1.84-10.21-1.55-18.39c0.04-1.26-0.35-2.31-1.03-3.2
		c-0.76-1-1.9-1.87-3.23-2.67c-2.44-1.46-3.73-3.72-5.04-6.02c-1-1.76-2.01-3.54-3.6-4.68V60.04z M36.95,35.24
		c0.59,0.49,0.66,1.37,0.17,1.96c-0.49,0.59-1.37,0.66-1.96,0.17c-0.86-0.72-1.53-1.61-1.99-2.6c-0.47-1-0.71-2.09-0.71-3.2
		c0-1.23,0.3-2.43,0.86-3.5c0.55-1.06,1.36-1.99,2.38-2.7c0.63-0.44,1.5-0.29,1.94,0.35c0.44,0.63,0.29,1.5-0.34,1.94
		c-0.63,0.44-1.14,1.03-1.49,1.71c-0.35,0.67-0.54,1.43-0.54,2.2c0,0.71,0.16,1.4,0.45,2.03C35.98,34.22,36.41,34.79,36.95,35.24z
		 M43.74,27.76c-0.59-0.49-0.66-1.37-0.17-1.97c0.49-0.59,1.38-0.66,1.97-0.17c0.85,0.72,1.53,1.61,1.99,2.6
		c0.47,1,0.72,2.09,0.72,3.2c0,1.23-0.3,2.43-0.86,3.5c-0.55,1.06-1.36,1.99-2.38,2.7c-0.63,0.44-1.5,0.29-1.94-0.35
		c-0.44-0.63-0.29-1.5,0.34-1.94c0.63-0.44,1.14-1.03,1.49-1.71c0.35-0.67,0.54-1.43,0.54-2.2c0-0.71-0.16-1.4-0.45-2.03
		C44.7,28.78,44.27,28.22,43.74,27.76z M33.39,39.47c0.59,0.5,0.67,1.38,0.17,1.97c-0.49,0.59-1.38,0.67-1.97,0.18
		c-1.48-1.24-2.65-2.79-3.45-4.5c-0.8-1.72-1.23-3.61-1.23-5.53c0-2.14,0.52-4.21,1.48-6.05c0.95-1.84,2.36-3.45,4.11-4.68
		c0.63-0.44,1.5-0.28,1.94,0.35c0.44,0.63,0.28,1.5-0.35,1.94c-1.37,0.96-2.47,2.23-3.22,3.68c-0.75,1.45-1.16,3.07-1.16,4.76
		c0,1.53,0.34,3.01,0.96,4.35C31.3,37.27,32.23,38.49,33.39,39.47z M47.29,23.54c-0.59-0.5-0.67-1.38-0.18-1.97
		c0.49-0.59,1.38-0.67,1.97-0.18c1.48,1.24,2.65,2.79,3.45,4.5c0.8,1.72,1.23,3.61,1.23,5.53c0,2.14-0.52,4.21-1.48,6.05
		c-0.95,1.84-2.35,3.45-4.11,4.68c-0.63,0.44-1.5,0.28-1.94-0.35c-0.44-0.63-0.28-1.5,0.35-1.94c1.37-0.96,2.47-2.23,3.22-3.68
		c0.76-1.45,1.16-3.08,1.16-4.76c0-1.53-0.34-3.01-0.96-4.35C49.38,25.73,48.46,24.52,47.29,23.54z M37.95,31.5
		c0-1.32,1.07-2.39,2.39-2.39c1.32,0,2.39,1.07,2.39,2.39c0,1.32-1.07,2.39-2.39,2.39C39.02,33.89,37.95,32.82,37.95,31.5z
		 M57.13,57.49V42.66V10.96c0-0.93-0.38-1.78-1-2.4c-0.62-0.62-1.47-1-2.4-1H26.95c-0.93,0-1.78,0.38-2.4,1c-0.62,0.61-1,1.47-1,2.4
		v53.96c0,0.93,0.38,1.78,1,2.4c0.61,0.61,1.47,1,2.4,1h19.43c-0.93-1.25-1.88-2.43-2.87-3.59l-0.04-0.05
		c-0.85,0.72-1.94,1.16-3.13,1.16c-1.33,0-2.54-0.54-3.41-1.42c-0.88-0.87-1.42-2.08-1.42-3.42c0-1.27,0.49-2.43,1.3-3.29
		c-1.51-1.73-1.9-3.8-1.49-5.63c0.21-0.94,0.63-1.82,1.22-2.54c0.6-0.74,1.37-1.35,2.29-1.73c1.82-0.77,4.13-0.66,6.52,0.98
		c2.66,1.83,5.24,3.67,7.7,5.52C54.45,55.37,55.82,56.43,57.13,57.49z M41.93,62.96c-1.09-1.19-2.25-2.38-3.48-3.6
		c-0.39,0.44-0.62,1.02-0.62,1.65c0,0.69,0.28,1.32,0.73,1.78c0.45,0.45,1.08,0.74,1.78,0.74C40.94,63.52,41.5,63.31,41.93,62.96z"
		/>
</g>
<text transform="matrix(1 0 0 1 49.3878 50.0018)" class="st0 st1">Created by Jenie Tomboc</text>
<text transform="matrix(1 0 0 1 49.4715 50.0018)" class="st0 st1">from the Noun Project</text>
</svg>
