<?xml version="1.0" encoding="utf-8"?>
<!-- Generator: Adobe Illustrator 23.0.1, SVG Export Plug-In . SVG Version: 6.00 Build 0)  -->
<svg version="1.1" id="Layer_1" xmlns="http://www.w3.org/2000/svg" xmlns:xlink="http://www.w3.org/1999/xlink" x="0px" y="0px"
	 viewBox="0 0 512 512" style="enable-background:new 0 0 512 512;" xml:space="preserve">
<style type="text/css">
	.st0{opacity:0.3;}
</style>
<g class="st0">
	<path d="M295.91,45.29C384.9,132.5,384.14,242.04,384.14,256c0,0,8.76,111.5-88.16,210.76c-2.91,2.98-5.16,6.61-5.16,10.96
		c0,8.16,7.01,14.78,15.66,14.78c5.33,0,13.09-6.18,13.09-6.18C424.9,379.5,415.9,256,415.9,256c0-141.55-95.56-230.15-95.56-230.15
		c-2.83-3.84-8.53-6.35-13.86-6.35c-8.65,0-15.66,6.62-15.66,14.78c0,4.35,1.99,8.26,5.15,10.96L295.91,45.29z M228.84,104.96
		c68.04,68.04,63.5,150.21,63.5,150.21c0,71.83-32.94,120.78-63.76,152.07c-3.44,2.71-5.64,6.79-5.64,11.36
		c0,8.16,7.01,14.78,15.66,14.78c4.53,0,8.61-1.82,11.47-4.71c0,0,74.02-64.33,74.02-172.26c0-110.4-74.03-173.07-74.03-173.07
		c-2.86-2.89-6.94-4.71-11.46-4.71c-8.65,0-15.66,6.62-15.66,14.78C222.95,98.08,225.25,102.25,228.84,104.96z M203.59,256.21
		c0,38.53-16.91,72.95-43.85,97.51l0.21,0.17c-1.97,2.47-3.13,5.54-3.13,8.87c0,8.16,7.01,14.78,15.66,14.78
		c4.25,0,8.11-1.6,10.93-4.19l0.17,0.14c31.92-30.02,51.77-71.55,51.77-117.69c0-45.93-19.85-87.35-51.76-117.31l-0.2,0.16
		c-2.82-2.59-6.67-4.18-10.91-4.18c-8.65,0-15.66,6.62-15.66,14.78c0,3.32,1.16,6.39,3.12,8.86l-0.15,0.12
		C186.92,183.1,203.59,217.93,203.59,256.21z M123.53,256.21c0,40.13-27.63,40.96-27.63,55.64c0,8.16,7.01,14.78,15.66,14.78
		c4.14,0,11.43-3.4,11.43-3.4c19.61-16.5,32.3-40.36,32.3-67.02c0-26.36-12.4-50.68-32.23-67.5c0,0-13.54-10.92-23.49,2.13
		c-7.5,9.83,0.83,19.13,5.47,23.77C116.01,225.57,123.53,240.09,123.53,256.21z"/>
</g>
</svg>
